<?xml version="1.0" encoding="utf-8"?>
<!-- Generator: Adobe Illustrator 18.0.0, SVG Export Plug-In . SVG Version: 6.00 Build 0)  -->
<!DOCTYPE svg PUBLIC "-//W3C//DTD SVG 1.1//EN" "http://www.w3.org/Graphics/SVG/1.1/DTD/svg11.dtd">
<svg version="1.1" id="Layer_1" xmlns="http://www.w3.org/2000/svg" xmlns:xlink="http://www.w3.org/1999/xlink" x="0px" y="0px"
	 viewBox="0 0 198.4 228.7" enable-background="new 0 0 198.4 228.7" xml:space="preserve">
<path d="M103.9,141.4c-7.4-9-9.5-17.8-5.7-28.7c-14.6,1.2-27.7-0.9-38.6-10.2c-11.1-9.4-15.5-21.7-15.3-36.4c-14.5,0-28.9,0-44.3,0
	c1.7-1.8,2.6-2.9,3.6-3.9c19.7-19.7,39.3-39.4,59.1-59c1.6-1.6,4.2-3.1,6.3-3.1C111.3,0,153.6,0,195.9,0c0.5,0,1,0.1,2.5,0.3
	c-3.1,3.1-5.5,5.9-8.3,8.3c-2.6,2.3-3.7,4.8-3.4,8.3c0.5,5.4-1.5,11.2,3.9,15.6c1.1,0.9,1.1,3.4,1.1,5.2c0.1,20.8,0.1,41.7,0,62.5
	c0,6.2-3.3,10-8.2,9.8c-4.8-0.2-7.7-3.8-7.7-9.8c0-20.8-0.1-41.7,0-62.5c0-1.9,0.7-3.9,1.3-5.8c1.1-3.7,2.4-7.3,3.6-11
	c-0.6-0.3-1.2-0.6-1.9-0.9c-3.6,3.6-7.2,7.1-10.7,10.7c-4.8,4.8-9.8,9.5-14.4,14.6c-1.3,1.4-2.1,4.2-1.7,5.9
	c4.8,19-0.1,34.8-15.1,47.5c-3.9,3.3-7.9,6.7-11.2,10.6c-4.6,5.5-4.2,11.7,1.1,16.5c7.1,6.5,14.7,12.5,21.9,18.9
	c22.8,20,16.8,50.3-3.1,66.6c-12.8,10.5-27.8,15.5-44.1,16.9c-16.3,1.4-32.3,0.5-47.5-6.4c-15.9-7.2-24.9-20.4-23.6-35.4
	c1.2-13.1,7.7-23.1,18.6-30.4c14-9.3,29.8-12,46-13.7C97.5,141.9,100,141.7,103.9,141.4z M55.5,182.2c-0.1,12.5,6.2,21.3,16.7,26.9
	c16.4,8.7,33.9,9.9,51.3,4.1c21.4-7,27.4-29.7,12.2-45.7c-6-6.3-13.6-11.2-20.6-16.5c-1.1-0.8-2.8-1.2-4.2-1.2
	c-13.4-0.1-26.7,1.3-38.8,7.6C62.2,162.6,55.6,170.4,55.5,182.2z M128.7,73.2c-1-13-4.9-27.9-16.8-39.6c-7.2-7-15.5-9.4-25.2-6.2
	c-9.6,3.2-15.3,10-16.7,19.9c-2.4,17.9,2,34,13.7,47.9c4.1,4.8,9.3,8,15.7,9C116.4,106.9,128.7,95.1,128.7,73.2z"/>
</svg>
