<svg viewBox="0 0 32 32" xml:space="preserve" xmlns="http://www.w3.org/2000/svg"><path d="M16 0C7.164 0 0 7.163 0 16c0 8.836 7.164 16 16 16s16-7.164 16-16c0-8.837-7.164-16-16-16zm-4.156 22.277H8.58v-9.82h3.264v9.82zm-1.632-11.161h-.021c-1.096 0-1.804-.755-1.804-1.697 0-.963.73-1.696 1.846-1.696s1.804.733 1.825 1.696c0 .943-.709 1.697-1.846 1.697zm13.401 11.161h-3.264v-5.254c0-1.32-.472-2.22-1.654-2.22-.901 0-1.438.607-1.674 1.194-.086.21-.108.503-.108.796v5.484H13.65s.043-8.898 0-9.82h3.264v1.391c.433-.669 1.209-1.622 2.942-1.622 2.147 0 3.757 1.404 3.757 4.42v5.631z" fill="#0d2636" class="fill-000000"></path></svg>